<svg width="289" height="333" viewBox="0 0 289 333" fill="none" xmlns="http://www.w3.org/2000/svg">
<path d="M3.79626 0H63.6655V229H3.79626V0Z" fill="white"/>
<path d="M3.79626 229V169.131H162.45V229H3.79626Z" fill="white"/>
<path d="M95.7963 0H288.796V60H95.7963V0Z" fill="white"/>
<path d="M194.796 0H257.796V229H194.796V0Z" fill="white"/>
<path d="M95.8145 148.392H112.869C122.392 148.392 130.127 140.656 130.127 131.134V115H113.073C103.55 115 95.8145 122.735 95.8145 132.257V148.392ZM101.584 142.622V132.257C101.584 125.926 106.742 120.769 113.073 120.769H124.383V131.134C124.383 137.465 119.226 142.622 112.894 142.622H101.584Z" fill="url(#paint0_linear)"/>
<path d="M130.064 115L129.94 132.054C129.871 141.577 137.549 149.368 147.071 149.438L163.205 149.555L163.329 132.501C163.398 122.978 155.719 115.186 146.198 115.117L130.064 115ZM135.791 120.812L146.156 120.887C152.487 120.933 157.606 126.127 157.56 132.459L157.478 143.769L147.113 143.693C140.782 143.647 135.663 138.453 135.709 132.121L135.791 120.812Z" fill="url(#paint1_linear)"/>
<path d="M164.127 82H147.073C137.55 82 129.814 89.7352 129.814 99.2574V115.392H146.869C156.392 115.392 164.127 107.656 164.127 98.1342V82ZM158.358 87.7695V98.1342C158.358 104.465 153.2 109.622 146.869 109.622H135.559V99.2574C135.559 92.9263 140.716 87.7695 147.048 87.7695H158.358Z" fill="url(#paint2_linear)"/>
<path d="M96.8168 81L96.8157 98.0544C96.815 107.577 104.55 115.314 114.072 115.314L130.206 115.315L130.207 98.261C130.208 88.7381 122.473 81.0018 112.951 81.0011L96.8168 81ZM102.586 86.7703L112.951 86.771C119.282 86.7715 124.438 91.929 124.438 98.2606L124.437 109.571L114.072 109.57C107.741 109.569 102.585 104.412 102.585 98.0803L102.586 86.7703Z" fill="url(#paint3_linear)"/>
<path d="M82.7963 112.985L94.5395 125.352C101.097 132.258 112.033 132.541 118.938 125.984L130.638 114.875L118.895 102.507C112.337 95.6017 101.401 95.3183 94.4962 101.875L82.7963 112.985ZM90.9531 113.196L98.4692 106.059C103.06 101.7 110.351 101.889 114.711 106.48L122.499 114.682L114.982 121.819C110.391 126.178 103.101 125.989 98.7409 121.398L90.9531 113.196Z" fill="url(#paint4_linear)"/>
<path d="M129.814 114.993L141.558 127.36C148.115 134.265 159.051 134.549 165.956 127.992L177.656 116.883L165.913 104.515C159.355 97.6097 148.419 97.3263 141.514 103.883L129.814 114.993ZM137.971 115.204L145.487 108.067C150.078 103.708 157.369 103.897 161.729 108.488L169.517 116.69L162 123.827C157.409 128.186 150.119 127.997 145.759 123.406L137.971 115.204Z" fill="url(#paint5_linear)"/>
<path d="M129.428 162.874L141.486 150.816C148.219 144.083 148.219 133.143 141.485 126.409L130.076 115L118.017 127.058C111.284 133.792 111.285 144.731 118.018 151.465L129.428 162.874ZM129.427 154.715L122.098 147.385C117.621 142.908 117.621 135.615 122.097 131.138L130.094 123.142L137.424 130.471C141.901 134.948 141.901 142.241 137.424 146.718L129.427 154.715Z" fill="url(#paint6_linear)"/>
<path d="M129.856 67L117.907 78.9493C111.235 85.6215 111.384 96.6109 118.24 103.467L129.856 115.083L141.805 103.134C148.478 96.4617 148.328 85.4724 141.473 78.6164L129.856 67ZM129.967 75.1967L137.43 82.6592C141.988 87.2175 142.088 94.5438 137.651 98.98L129.727 106.904L122.264 99.442C117.706 94.8836 117.607 87.5574 122.043 83.1211L129.967 75.1967Z" fill="url(#paint7_linear)"/>
<path d="M6.43127 242.9H9.13427V277.562H30.4933V280H6.43127V242.9Z" fill="white"/>
<path d="M61.7724 252.334V280H59.1754V273.481C58.08 275.636 56.543 277.297 54.5644 278.463C52.5857 279.629 50.342 280.212 47.8334 280.212C45.254 280.212 42.922 279.611 40.8374 278.41C38.7527 277.209 37.1097 275.548 35.9084 273.428C34.7424 271.308 34.1594 268.888 34.1594 266.167C34.1594 263.446 34.7424 261.026 35.9084 258.906C37.1097 256.751 38.7527 255.09 40.8374 253.924C42.922 252.723 45.254 252.122 47.8334 252.122C50.3067 252.122 52.515 252.705 54.4584 253.871C56.437 255.037 57.9917 256.662 59.1224 258.747V252.334H61.7724ZM47.9924 277.827C50.1124 277.827 52.0027 277.332 53.6634 276.343C55.3594 275.354 56.6844 273.976 57.6384 272.209C58.6277 270.442 59.1224 268.428 59.1224 266.167C59.1224 263.906 58.6277 261.892 57.6384 260.125C56.6844 258.358 55.3594 256.98 53.6634 255.991C52.0027 255.002 50.1124 254.507 47.9924 254.507C45.8724 254.507 43.9644 255.002 42.2684 255.991C40.6077 256.98 39.2827 258.358 38.2934 260.125C37.3394 261.892 36.8624 263.906 36.8624 266.167C36.8624 268.428 37.3394 270.442 38.2934 272.209C39.2827 273.976 40.6077 275.354 42.2684 276.343C43.9644 277.332 45.8724 277.827 47.9924 277.827Z" fill="white"/>
<path d="M87.52 252.122C90.9827 252.122 93.721 253.129 95.735 255.143C97.749 257.157 98.756 260.054 98.756 263.835V280H96.106V264.047C96.106 260.938 95.311 258.57 93.721 256.945C92.1664 255.32 89.9757 254.507 87.149 254.507C83.8984 254.507 81.3367 255.479 79.464 257.422C77.5914 259.365 76.655 261.98 76.655 265.266V280H74.005V252.334H76.549V258.323C77.503 256.38 78.9164 254.86 80.789 253.765C82.697 252.67 84.9407 252.122 87.52 252.122Z" fill="white"/>
<path d="M135.37 240.674V280H132.773V273.481C131.678 275.636 130.141 277.297 128.162 278.463C126.183 279.629 123.94 280.212 121.431 280.212C118.852 280.212 116.52 279.611 114.435 278.41C112.35 277.209 110.707 275.548 109.506 273.428C108.34 271.308 107.757 268.888 107.757 266.167C107.757 263.446 108.34 261.026 109.506 258.906C110.707 256.751 112.35 255.09 114.435 253.924C116.52 252.723 118.852 252.122 121.431 252.122C123.904 252.122 126.113 252.705 128.056 253.871C130.035 255.037 131.589 256.662 132.72 258.747V240.674H135.37ZM121.59 277.827C123.71 277.827 125.6 277.332 127.261 276.343C128.957 275.354 130.282 273.976 131.236 272.209C132.225 270.442 132.72 268.428 132.72 266.167C132.72 263.906 132.225 261.892 131.236 260.125C130.282 258.358 128.957 256.98 127.261 255.991C125.6 255.002 123.71 254.507 121.59 254.507C119.47 254.507 117.562 255.002 115.866 255.991C114.205 256.98 112.88 258.358 111.891 260.125C110.937 261.892 110.46 263.906 110.46 266.167C110.46 268.428 110.937 270.442 111.891 272.209C112.88 273.976 114.205 275.354 115.866 276.343C117.562 277.332 119.47 277.827 121.59 277.827Z" fill="white"/>
<path d="M154.811 280.212C152.479 280.212 150.694 279.558 149.458 278.251C148.221 276.908 147.603 275.071 147.603 272.739V240.674H150.253V272.421C150.253 274.223 150.659 275.601 151.472 276.555C152.284 277.474 153.503 277.933 155.129 277.933C156.047 277.933 156.931 277.756 157.779 277.403L157.991 279.629C157.001 280.018 155.941 280.212 154.811 280.212Z" fill="white"/>
<path d="M174.743 280.212C172.128 280.212 169.761 279.611 167.641 278.41C165.556 277.209 163.913 275.548 162.712 273.428C161.511 271.273 160.91 268.852 160.91 266.167C160.91 263.482 161.511 261.079 162.712 258.959C163.913 256.804 165.556 255.125 167.641 253.924C169.761 252.723 172.128 252.122 174.743 252.122C177.358 252.122 179.707 252.723 181.792 253.924C183.912 255.125 185.573 256.804 186.774 258.959C187.975 261.079 188.576 263.482 188.576 266.167C188.576 268.852 187.975 271.273 186.774 273.428C185.573 275.548 183.912 277.209 181.792 278.41C179.707 279.611 177.358 280.212 174.743 280.212ZM174.743 277.827C176.863 277.827 178.753 277.332 180.414 276.343C182.11 275.354 183.435 273.976 184.389 272.209C185.378 270.442 185.873 268.428 185.873 266.167C185.873 263.906 185.378 261.892 184.389 260.125C183.435 258.358 182.11 256.98 180.414 255.991C178.753 255.002 176.863 254.507 174.743 254.507C172.623 254.507 170.715 255.002 169.019 255.991C167.358 256.98 166.033 258.358 165.044 260.125C164.09 261.892 163.613 263.906 163.613 266.167C163.613 268.428 164.09 270.442 165.044 272.209C166.033 273.976 167.358 275.354 169.019 276.343C170.715 277.332 172.623 277.827 174.743 277.827Z" fill="white"/>
<path d="M200.401 258.376C201.249 256.362 202.574 254.825 204.376 253.765C206.178 252.67 208.369 252.122 210.948 252.122V254.719L210.312 254.666C207.238 254.666 204.836 255.638 203.104 257.581C201.373 259.489 200.507 262.157 200.507 265.584V280H197.857V252.334H200.401V258.376Z" fill="white"/>
<path d="M243.643 240.674V280H241.046V273.481C239.951 275.636 238.414 277.297 236.435 278.463C234.456 279.629 232.213 280.212 229.704 280.212C227.125 280.212 224.793 279.611 222.708 278.41C220.623 277.209 218.98 275.548 217.779 273.428C216.613 271.308 216.03 268.888 216.03 266.167C216.03 263.446 216.613 261.026 217.779 258.906C218.98 256.751 220.623 255.09 222.708 253.924C224.793 252.723 227.125 252.122 229.704 252.122C232.177 252.122 234.386 252.705 236.329 253.871C238.308 255.037 239.862 256.662 240.993 258.747V240.674H243.643ZM229.863 277.827C231.983 277.827 233.873 277.332 235.534 276.343C237.23 275.354 238.555 273.976 239.509 272.209C240.498 270.442 240.993 268.428 240.993 266.167C240.993 263.906 240.498 261.892 239.509 260.125C238.555 258.358 237.23 256.98 235.534 255.991C233.873 255.002 231.983 254.507 229.863 254.507C227.743 254.507 225.835 255.002 224.139 255.991C222.478 256.98 221.153 258.358 220.164 260.125C219.21 261.892 218.733 263.906 218.733 266.167C218.733 268.428 219.21 270.442 220.164 272.209C221.153 273.976 222.478 275.354 224.139 276.343C225.835 277.332 227.743 277.827 229.863 277.827Z" fill="white"/>
<path d="M262.872 280.212C260.646 280.212 258.526 279.876 256.512 279.205C254.498 278.534 252.925 277.686 251.795 276.661L253.014 274.541C254.144 275.495 255.593 276.29 257.36 276.926C259.162 277.562 261.034 277.88 262.978 277.88C265.769 277.88 267.818 277.421 269.126 276.502C270.468 275.583 271.14 274.311 271.14 272.686C271.14 271.52 270.769 270.601 270.027 269.93C269.32 269.259 268.437 268.764 267.377 268.446C266.317 268.128 264.85 267.792 262.978 267.439C260.787 267.05 259.02 266.626 257.678 266.167C256.335 265.708 255.187 264.966 254.233 263.941C253.279 262.916 252.802 261.503 252.802 259.701C252.802 257.51 253.703 255.708 255.505 254.295C257.342 252.846 259.939 252.122 263.296 252.122C265.062 252.122 266.811 252.369 268.543 252.864C270.274 253.359 271.687 254.012 272.783 254.825L271.564 256.945C270.433 256.132 269.143 255.514 267.695 255.09C266.246 254.666 264.762 254.454 263.243 254.454C260.663 254.454 258.72 254.931 257.413 255.885C256.105 256.839 255.452 258.093 255.452 259.648C255.452 260.885 255.823 261.856 256.565 262.563C257.307 263.234 258.208 263.747 259.268 264.1C260.363 264.418 261.882 264.771 263.826 265.16C265.981 265.549 267.712 265.973 269.02 266.432C270.362 266.856 271.493 267.563 272.412 268.552C273.33 269.541 273.79 270.902 273.79 272.633C273.79 274.93 272.836 276.767 270.928 278.145C269.02 279.523 266.334 280.212 262.872 280.212Z" fill="white"/>
<path d="M24.57 297.495C21.42 295.635 17.865 294.6 13.905 294.39V324H11.565V294.39C7.755 294.54 4.2 295.575 0.9 297.495L0 295.65C3.84 293.4 8.07 292.275 12.69 292.275C17.37 292.275 21.63 293.4 25.47 295.65L24.57 297.495Z" fill="white"/>
<path d="M38.3702 322.155C39.9002 322.155 41.3102 321.885 42.6002 321.345C43.9202 320.775 45.0152 319.95 45.8852 318.87L47.1902 320.355C46.1702 321.615 44.8952 322.575 43.3652 323.235C41.8352 323.865 40.1552 324.18 38.3252 324.18C35.9852 324.18 33.8852 323.67 32.0252 322.65C30.1952 321.63 28.7552 320.22 27.7052 318.42C26.6852 316.62 26.1752 314.565 26.1752 312.255C26.1752 309.945 26.6552 307.89 27.6152 306.09C28.6052 304.29 29.9702 302.88 31.7102 301.86C33.4502 300.84 35.4152 300.33 37.6052 300.33C39.6452 300.33 41.4752 300.81 43.0952 301.77C44.7452 302.7 46.0502 304.005 47.0102 305.685C48.0002 307.335 48.5402 309.195 48.6302 311.265L28.7852 315.135C29.3552 317.295 30.4952 319.005 32.2052 320.265C33.9152 321.525 35.9702 322.155 38.3702 322.155ZM37.6052 302.31C35.8352 302.31 34.2452 302.73 32.8352 303.57C31.4252 304.38 30.3302 305.535 29.5502 307.035C28.7702 308.505 28.3802 310.185 28.3802 312.075C28.3802 312.405 28.4102 312.87 28.4702 313.47L46.3802 309.96C46.1702 308.55 45.6752 307.26 44.8952 306.09C44.1152 304.92 43.0952 304.005 41.8352 303.345C40.5752 302.655 39.1652 302.31 37.6052 302.31Z" fill="white"/>
<path d="M65.8058 324.18C63.5258 324.18 61.4858 323.67 59.6858 322.65C57.8858 321.63 56.4758 320.22 55.4558 318.42C54.4358 316.59 53.9258 314.535 53.9258 312.255C53.9258 309.945 54.4358 307.89 55.4558 306.09C56.4758 304.26 57.8858 302.85 59.6858 301.86C61.4858 300.84 63.5258 300.33 65.8058 300.33C67.6958 300.33 69.4058 300.705 70.9358 301.455C72.4958 302.175 73.7558 303.24 74.7158 304.65L73.0508 305.865C72.2108 304.695 71.1608 303.825 69.9008 303.255C68.6708 302.655 67.3058 302.355 65.8058 302.355C63.9758 302.355 62.3258 302.775 60.8558 303.615C59.4158 304.425 58.2758 305.58 57.4358 307.08C56.6258 308.58 56.2208 310.305 56.2208 312.255C56.2208 314.205 56.6258 315.93 57.4358 317.43C58.2758 318.93 59.4158 320.1 60.8558 320.94C62.3258 321.75 63.9758 322.155 65.8058 322.155C67.3058 322.155 68.6708 321.87 69.9008 321.3C71.1608 320.7 72.2108 319.815 73.0508 318.645L74.7158 319.86C73.7558 321.27 72.4958 322.35 70.9358 323.1C69.4058 323.82 67.6958 324.18 65.8058 324.18Z" fill="white"/>
<path d="M93.4313 300.33C96.3713 300.33 98.6963 301.185 100.406 302.895C102.116 304.605 102.971 307.065 102.971 310.275V324H100.721V310.455C100.721 307.815 100.046 305.805 98.6963 304.425C97.3763 303.045 95.5163 302.355 93.1162 302.355C90.3562 302.355 88.1813 303.18 86.5912 304.83C85.0013 306.48 84.2062 308.7 84.2062 311.49V324H81.9562V290.61H84.2062V305.415C85.0162 303.795 86.2162 302.55 87.8062 301.68C89.3962 300.78 91.2712 300.33 93.4313 300.33Z" fill="white"/>
<path d="M124.61 300.33C127.55 300.33 129.875 301.185 131.585 302.895C133.295 304.605 134.15 307.065 134.15 310.275V324H131.9V310.455C131.9 307.815 131.225 305.805 129.875 304.425C128.555 303.045 126.695 302.355 124.295 302.355C121.535 302.355 119.36 303.18 117.77 304.83C116.18 306.48 115.385 308.7 115.385 311.49V324H113.135V300.51H115.295V305.595C116.105 303.945 117.305 302.655 118.895 301.725C120.515 300.795 122.42 300.33 124.61 300.33Z" fill="white"/>
<path d="M153.537 324.18C151.317 324.18 149.307 323.67 147.507 322.65C145.737 321.63 144.342 320.22 143.322 318.42C142.302 316.59 141.792 314.535 141.792 312.255C141.792 309.975 142.302 307.935 143.322 306.135C144.342 304.305 145.737 302.88 147.507 301.86C149.307 300.84 151.317 300.33 153.537 300.33C155.757 300.33 157.752 300.84 159.522 301.86C161.322 302.88 162.732 304.305 163.752 306.135C164.772 307.935 165.282 309.975 165.282 312.255C165.282 314.535 164.772 316.59 163.752 318.42C162.732 320.22 161.322 321.63 159.522 322.65C157.752 323.67 155.757 324.18 153.537 324.18ZM153.537 322.155C155.337 322.155 156.942 321.735 158.352 320.895C159.792 320.055 160.917 318.885 161.727 317.385C162.567 315.885 162.987 314.175 162.987 312.255C162.987 310.335 162.567 308.625 161.727 307.125C160.917 305.625 159.792 304.455 158.352 303.615C156.942 302.775 155.337 302.355 153.537 302.355C151.737 302.355 150.117 302.775 148.677 303.615C147.267 304.455 146.142 305.625 145.302 307.125C144.492 308.625 144.087 310.335 144.087 312.255C144.087 314.175 144.492 315.885 145.302 317.385C146.142 318.885 147.267 320.055 148.677 320.895C150.117 321.735 151.737 322.155 153.537 322.155Z" fill="white"/>
<path d="M179.282 324.18C177.302 324.18 175.787 323.625 174.737 322.515C173.687 321.375 173.162 319.815 173.162 317.835V290.61H175.412V317.565C175.412 319.095 175.757 320.265 176.447 321.075C177.137 321.855 178.172 322.245 179.552 322.245C180.332 322.245 181.082 322.095 181.802 321.795L181.982 323.685C181.142 324.015 180.242 324.18 179.282 324.18Z" fill="white"/>
<path d="M196.206 324.18C193.986 324.18 191.976 323.67 190.176 322.65C188.406 321.63 187.011 320.22 185.991 318.42C184.971 316.59 184.461 314.535 184.461 312.255C184.461 309.975 184.971 307.935 185.991 306.135C187.011 304.305 188.406 302.88 190.176 301.86C191.976 300.84 193.986 300.33 196.206 300.33C198.426 300.33 200.421 300.84 202.191 301.86C203.991 302.88 205.401 304.305 206.421 306.135C207.441 307.935 207.951 309.975 207.951 312.255C207.951 314.535 207.441 316.59 206.421 318.42C205.401 320.22 203.991 321.63 202.191 322.65C200.421 323.67 198.426 324.18 196.206 324.18ZM196.206 322.155C198.006 322.155 199.611 321.735 201.021 320.895C202.461 320.055 203.586 318.885 204.396 317.385C205.236 315.885 205.656 314.175 205.656 312.255C205.656 310.335 205.236 308.625 204.396 307.125C203.586 305.625 202.461 304.455 201.021 303.615C199.611 302.775 198.006 302.355 196.206 302.355C194.406 302.355 192.786 302.775 191.346 303.615C189.936 304.455 188.811 305.625 187.971 307.125C187.161 308.625 186.756 310.335 186.756 312.255C186.756 314.175 187.161 315.885 187.971 317.385C188.811 318.885 189.936 320.055 191.346 320.895C192.786 321.735 194.406 322.155 196.206 322.155Z" fill="white"/>
<path d="M236.981 300.51V321.48C236.981 325.38 236.036 328.26 234.146 330.12C232.256 331.98 229.406 332.91 225.596 332.91C223.436 332.91 221.396 332.58 219.476 331.92C217.556 331.26 216.011 330.345 214.841 329.175L216.056 327.465C217.226 328.545 218.636 329.385 220.286 329.985C221.936 330.585 223.691 330.885 225.551 330.885C228.671 330.885 230.981 330.135 232.481 328.635C233.981 327.165 234.731 324.87 234.731 321.75V317.79C233.771 319.5 232.436 320.82 230.726 321.75C229.016 322.68 227.096 323.145 224.966 323.145C222.776 323.145 220.781 322.665 218.981 321.705C217.211 320.715 215.816 319.35 214.796 317.61C213.776 315.87 213.266 313.905 213.266 311.715C213.266 309.525 213.776 307.56 214.796 305.82C215.816 304.08 217.211 302.73 218.981 301.77C220.781 300.81 222.776 300.33 224.966 300.33C227.126 300.33 229.076 300.81 230.816 301.77C232.556 302.73 233.891 304.08 234.821 305.82V300.51H236.981ZM225.146 321.12C226.976 321.12 228.626 320.73 230.096 319.95C231.566 319.14 232.706 318.03 233.516 316.62C234.356 315.18 234.776 313.545 234.776 311.715C234.776 309.885 234.356 308.265 233.516 306.855C232.706 305.445 231.566 304.35 230.096 303.57C228.626 302.76 226.976 302.355 225.146 302.355C223.316 302.355 221.666 302.76 220.196 303.57C218.756 304.35 217.616 305.445 216.776 306.855C215.966 308.265 215.561 309.885 215.561 311.715C215.561 313.545 215.966 315.18 216.776 316.62C217.616 318.03 218.756 319.14 220.196 319.95C221.666 320.73 223.316 321.12 225.146 321.12Z" fill="white"/>
<path d="M267.97 300.51V321.48C267.97 325.38 267.1 328.26 265.36 330.12C263.62 331.98 260.995 332.91 257.485 332.91C255.475 332.91 253.585 332.58 251.815 331.92C250.045 331.26 248.62 330.345 247.54 329.175L248.755 327.465C249.805 328.545 251.08 329.385 252.58 329.985C254.08 330.585 255.685 330.885 257.395 330.885C260.245 330.885 262.345 330.135 263.695 328.635C265.045 327.165 265.72 324.87 265.72 321.75V318.15C264.91 319.71 263.74 320.94 262.21 321.84C260.71 322.71 258.955 323.145 256.945 323.145C253.885 323.145 251.485 322.29 249.745 320.58C248.005 318.87 247.135 316.41 247.135 313.2V300.51H249.385V313.02C249.385 315.66 250.06 317.67 251.41 319.05C252.76 320.43 254.665 321.12 257.125 321.12C259.765 321.12 261.85 320.295 263.38 318.645C264.94 316.995 265.72 314.775 265.72 311.985V300.51H267.97Z" fill="white"/>
<defs>
<linearGradient id="paint0_linear" x1="95.7961" y1="148" x2="129.796" y2="115" gradientUnits="userSpaceOnUse">
<stop stop-color="#CC8D2B"/>
<stop offset="1" stop-color="#CC8D2B" stop-opacity="0.45"/>
</linearGradient>
<linearGradient id="paint1_linear" x1="162.796" y1="148.5" x2="131.796" y2="115" gradientUnits="userSpaceOnUse">
<stop stop-color="#47773D"/>
<stop offset="1" stop-color="#47773D" stop-opacity="0.45"/>
</linearGradient>
<linearGradient id="paint2_linear" x1="163.796" y1="82.5" x2="129.796" y2="115" gradientUnits="userSpaceOnUse">
<stop stop-color="#F79E28"/>
<stop offset="1" stop-color="#F79E28" stop-opacity="0.45"/>
</linearGradient>
<linearGradient id="paint3_linear" x1="95.7961" y1="81.0005" x2="129.796" y2="115.001" gradientUnits="userSpaceOnUse">
<stop stop-color="#F36D24"/>
<stop offset="1" stop-color="#F36D24" stop-opacity="0.45"/>
</linearGradient>
<linearGradient id="paint4_linear" x1="82.7964" y1="114" x2="129.796" y2="114" gradientUnits="userSpaceOnUse">
<stop stop-color="#8F1737"/>
<stop offset="1" stop-color="#8F1737" stop-opacity="0.45"/>
</linearGradient>
<linearGradient id="paint5_linear" x1="177.796" y1="116" x2="129.796" y2="115" gradientUnits="userSpaceOnUse">
<stop stop-color="#FBB611"/>
<stop offset="1" stop-color="#FBB611" stop-opacity="0.45"/>
</linearGradient>
<linearGradient id="paint6_linear" x1="129.796" y1="163" x2="129.796" y2="115" gradientUnits="userSpaceOnUse">
<stop stop-color="#299A4A"/>
<stop offset="1" stop-color="#299A4A" stop-opacity="0.45"/>
</linearGradient>
<linearGradient id="paint7_linear" x1="129.796" y1="67" x2="129.796" y2="115" gradientUnits="userSpaceOnUse">
<stop stop-color="#EA1D2E"/>
<stop offset="1" stop-color="#EA1D2E" stop-opacity="0.45"/>
</linearGradient>
</defs>
</svg>
